<svg xmlns="http://www.w3.org/2000/svg" viewBox="0 0 1200 800" width="1200" height="800" role="img">
  <defs>
  <filter id="grain">
    <feTurbulence type="fractalNoise" baseFrequency="0.9" numOctaves="2" stitchTiles="stitch"/>
    <feColorMatrix type="saturate" values="0"/>
    <feComponentTransfer><feFuncA type="linear" slope="0.05"/></feComponentTransfer>
    <feComposite operator="over" in2="SourceGraphic"/>
  </filter></defs>
  <rect width="1200" height="800" fill="#ece4d4"/>
  <circle cx="588" cy="449" r="34" fill="#c8442a" opacity="0.19"/><circle cx="532" cy="405" r="29" fill="#9a9080" opacity="0.41"/><circle cx="707" cy="329" r="54" fill="#2a2824" opacity="0.37"/><circle cx="789" cy="61" r="80" fill="#c8442a" opacity="0.18"/><circle cx="806" cy="126" r="87" fill="#9a9080" opacity="0.27"/><circle cx="211" cy="40" r="133" fill="#2a2824" opacity="0.44"/><circle cx="145" cy="355" r="135" fill="#c8442a" opacity="0.17"/><circle cx="503" cy="440" r="101" fill="#9a9080" opacity="0.20"/><circle cx="204" cy="788" r="73" fill="#2a2824" opacity="0.18"/><circle cx="656" cy="264" r="38" fill="#c8442a" opacity="0.37"/><circle cx="422" cy="280" r="30" fill="#9a9080" opacity="0.42"/><circle cx="286" cy="707" r="76" fill="#2a2824" opacity="0.18"/><circle cx="724" cy="321" r="111" fill="#c8442a" opacity="0.33"/><circle cx="163" cy="179" r="74" fill="#9a9080" opacity="0.13"/><circle cx="57" cy="330" r="102" fill="#2a2824" opacity="0.33"/><circle cx="1146" cy="260" r="73" fill="#c8442a" opacity="0.27"/><circle cx="527" cy="671" r="74" fill="#9a9080" opacity="0.25"/><circle cx="317" cy="189" r="109" fill="#2a2824" opacity="0.15"/><circle cx="324" cy="613" r="123" fill="#c8442a" opacity="0.44"/><circle cx="1112" cy="688" r="110" fill="#9a9080" opacity="0.32"/><circle cx="665" cy="19" r="59" fill="#2a2824" opacity="0.23"/><circle cx="258" cy="315" r="102" fill="#c8442a" opacity="0.36"/><circle cx="320" cy="765" r="21" fill="#9a9080" opacity="0.23"/><circle cx="703" cy="353" r="31" fill="#2a2824" opacity="0.45"/><circle cx="548" cy="698" r="90" fill="#c8442a" opacity="0.26"/><circle cx="150" cy="635" r="128" fill="#9a9080" opacity="0.19"/><circle cx="29" cy="124" r="105" fill="#2a2824" opacity="0.34"/><circle cx="792" cy="696" r="48" fill="#c8442a" opacity="0.39"/>
  <rect width="1200" height="800" fill="#ece4d4" filter="url(#grain)" opacity="0.6"/>
</svg>