<svg xmlns="http://www.w3.org/2000/svg" viewBox="0 0 1200 800" width="1200" height="800" role="img">
  <defs>
  <filter id="grain">
    <feTurbulence type="fractalNoise" baseFrequency="0.9" numOctaves="2" stitchTiles="stitch"/>
    <feColorMatrix type="saturate" values="0"/>
    <feComponentTransfer><feFuncA type="linear" slope="0.05"/></feComponentTransfer>
    <feComposite operator="over" in2="SourceGraphic"/>
  </filter></defs>
  <rect width="1200" height="800" fill="#e3dccb"/>
  <circle cx="80" cy="80" r="2.0" fill="#1a1a1a" opacity="0.85"/><circle cx="150" cy="80" r="2.0" fill="#1a1a1a" opacity="0.85"/><circle cx="220" cy="80" r="3.0" fill="#1a1a1a" opacity="0.85"/><circle cx="290" cy="80" r="5.4" fill="#1a1a1a" opacity="0.85"/><circle cx="360" cy="80" r="7.7" fill="#1a1a1a" opacity="0.85"/><circle cx="430" cy="80" r="10.0" fill="#1a1a1a" opacity="0.85"/><circle cx="500" cy="80" r="12.2" fill="#1a1a1a" opacity="0.85"/><circle cx="570" cy="80" r="14.2" fill="#1a1a1a" opacity="0.85"/><circle cx="640" cy="80" r="15.9" fill="#1a1a1a" opacity="0.85"/><circle cx="710" cy="80" r="17.2" fill="#1a1a1a" opacity="0.85"/><circle cx="780" cy="80" r="17.8" fill="#1a1a1a" opacity="0.85"/><circle cx="850" cy="80" r="17.6" fill="#1a1a1a" opacity="0.85"/><circle cx="920" cy="80" r="16.7" fill="#1a1a1a" opacity="0.85"/><circle cx="990" cy="80" r="15.2" fill="#1a1a1a" opacity="0.85"/><circle cx="1060" cy="80" r="13.3" fill="#1a1a1a" opacity="0.85"/><circle cx="1130" cy="80" r="11.3" fill="#1a1a1a" opacity="0.85"/><circle cx="80" cy="150" r="2.0" fill="#1a1a1a" opacity="0.85"/><circle cx="150" cy="150" r="2.0" fill="#1a1a1a" opacity="0.85"/><circle cx="220" cy="150" r="3.7" fill="#1a1a1a" opacity="0.85"/><circle cx="290" cy="150" r="6.3" fill="#1a1a1a" opacity="0.85"/><circle cx="360" cy="150" r="8.7" fill="#1a1a1a" opacity="0.85"/><circle cx="430" cy="150" r="11.2" fill="#1a1a1a" opacity="0.85"/><circle cx="500" cy="150" r="13.5" fill="#1a1a1a" opacity="0.85"/><circle cx="570" cy="150" r="15.8" fill="#1a1a1a" opacity="0.85"/><circle cx="640" cy="150" r="17.9" fill="#1a1a1a" opacity="0.85"/><circle cx="710" cy="150" r="19.5" fill="#1a1a1a" opacity="0.85"/><circle cx="780" cy="150" r="20.4" fill="#1a1a1a" opacity="0.85"/><circle cx="850" cy="150" r="20.1" fill="#1a1a1a" opacity="0.85"/><circle cx="920" cy="150" r="18.9" fill="#1a1a1a" opacity="0.85"/><circle cx="990" cy="150" r="17.0" fill="#1a1a1a" opacity="0.85"/><circle cx="1060" cy="150" r="14.9" fill="#1a1a1a" opacity="0.85"/><circle cx="1130" cy="150" r="12.5" fill="#1a1a1a" opacity="0.85"/><circle cx="80" cy="220" r="2.0" fill="#1a1a1a" opacity="0.85"/><circle cx="150" cy="220" r="2.0" fill="#1a1a1a" opacity="0.85"/><circle cx="220" cy="220" r="4.3" fill="#1a1a1a" opacity="0.85"/><circle cx="290" cy="220" r="6.8" fill="#1a1a1a" opacity="0.85"/><circle cx="360" cy="220" r="9.4" fill="#1a1a1a" opacity="0.85"/><circle cx="430" cy="220" r="11.9" fill="#1a1a1a" opacity="0.85"/><circle cx="500" cy="220" r="14.5" fill="#1a1a1a" opacity="0.85"/><circle cx="570" cy="220" r="17.0" fill="#1a1a1a" opacity="0.85"/><circle cx="640" cy="220" r="19.4" fill="#1a1a1a" opacity="0.85"/><circle cx="710" cy="220" r="21.5" fill="#1a1a1a" opacity="0.85"/><circle cx="780" cy="220" r="22.9" fill="#1a1a1a" opacity="0.85"/><circle cx="850" cy="220" r="22.5" fill="#1a1a1a" opacity="0.85"/><circle cx="920" cy="220" r="20.6" fill="#1a1a1a" opacity="0.85"/><circle cx="990" cy="220" r="18.3" fill="#1a1a1a" opacity="0.85"/><circle cx="1060" cy="220" r="15.9" fill="#1a1a1a" opacity="0.85"/><circle cx="1130" cy="220" r="13.4" fill="#1a1a1a" opacity="0.85"/><circle cx="80" cy="290" r="2.0" fill="#1a1a1a" opacity="0.85"/><circle cx="150" cy="290" r="2.0" fill="#1a1a1a" opacity="0.85"/><circle cx="220" cy="290" r="4.5" fill="#1a1a1a" opacity="0.85"/><circle cx="290" cy="290" r="7.1" fill="#1a1a1a" opacity="0.85"/><circle cx="360" cy="290" r="9.7" fill="#1a1a1a" opacity="0.85"/><circle cx="430" cy="290" r="12.3" fill="#1a1a1a" opacity="0.85"/><circle cx="500" cy="290" r="14.9" fill="#1a1a1a" opacity="0.85"/><circle cx="570" cy="290" r="17.4" fill="#1a1a1a" opacity="0.85"/><circle cx="640" cy="290" r="20.0" fill="#1a1a1a" opacity="0.85"/><circle cx="710" cy="290" r="22.6" fill="#1a1a1a" opacity="0.85"/><circle cx="780" cy="290" r="25.2" fill="#1a1a1a" opacity="0.85"/><circle cx="850" cy="290" r="24.1" fill="#1a1a1a" opacity="0.85"/><circle cx="920" cy="290" r="21.5" fill="#1a1a1a" opacity="0.85"/><circle cx="990" cy="290" r="18.9" fill="#1a1a1a" opacity="0.85"/><circle cx="1060" cy="290" r="16.3" fill="#1a1a1a" opacity="0.85"/><circle cx="1130" cy="290" r="13.7" fill="#1a1a1a" opacity="0.85"/><circle cx="80" cy="360" r="2.0" fill="#1a1a1a" opacity="0.85"/><circle cx="150" cy="360" r="2.0" fill="#1a1a1a" opacity="0.85"/><circle cx="220" cy="360" r="4.3" fill="#1a1a1a" opacity="0.85"/><circle cx="290" cy="360" r="6.9" fill="#1a1a1a" opacity="0.85"/><circle cx="360" cy="360" r="9.5" fill="#1a1a1a" opacity="0.85"/><circle cx="430" cy="360" r="12.1" fill="#1a1a1a" opacity="0.85"/><circle cx="500" cy="360" r="14.6" fill="#1a1a1a" opacity="0.85"/><circle cx="570" cy="360" r="17.2" fill="#1a1a1a" opacity="0.85"/><circle cx="640" cy="360" r="19.7" fill="#1a1a1a" opacity="0.85"/><circle cx="710" cy="360" r="22.0" fill="#1a1a1a" opacity="0.85"/><circle cx="780" cy="360" r="23.7" fill="#1a1a1a" opacity="0.85"/><circle cx="850" cy="360" r="23.1" fill="#1a1a1a" opacity="0.85"/><circle cx="920" cy="360" r="21.0" fill="#1a1a1a" opacity="0.85"/><circle cx="990" cy="360" r="18.6" fill="#1a1a1a" opacity="0.85"/><circle cx="1060" cy="360" r="16.1" fill="#1a1a1a" opacity="0.85"/><circle cx="1130" cy="360" r="13.5" fill="#1a1a1a" opacity="0.85"/><circle cx="80" cy="430" r="2.0" fill="#1a1a1a" opacity="0.85"/><circle cx="150" cy="430" r="2.0" fill="#1a1a1a" opacity="0.85"/><circle cx="220" cy="430" r="3.9" fill="#1a1a1a" opacity="0.85"/><circle cx="290" cy="430" r="6.5" fill="#1a1a1a" opacity="0.85"/><circle cx="360" cy="430" r="9.0" fill="#1a1a1a" opacity="0.85"/><circle cx="430" cy="430" r="11.4" fill="#1a1a1a" opacity="0.85"/><circle cx="500" cy="430" r="13.9" fill="#1a1a1a" opacity="0.85"/><circle cx="570" cy="430" r="16.2" fill="#1a1a1a" opacity="0.85"/><circle cx="640" cy="430" r="18.3" fill="#1a1a1a" opacity="0.85"/><circle cx="710" cy="430" r="20.1" fill="#1a1a1a" opacity="0.85"/><circle cx="780" cy="430" r="21.1" fill="#1a1a1a" opacity="0.85"/><circle cx="850" cy="430" r="20.8" fill="#1a1a1a" opacity="0.85"/><circle cx="920" cy="430" r="19.4" fill="#1a1a1a" opacity="0.85"/><circle cx="990" cy="430" r="17.4" fill="#1a1a1a" opacity="0.85"/><circle cx="1060" cy="430" r="15.2" fill="#1a1a1a" opacity="0.85"/><circle cx="1130" cy="430" r="12.8" fill="#1a1a1a" opacity="0.85"/><circle cx="80" cy="500" r="2.0" fill="#1a1a1a" opacity="0.85"/><circle cx="150" cy="500" r="2.0" fill="#1a1a1a" opacity="0.85"/><circle cx="220" cy="500" r="3.2" fill="#1a1a1a" opacity="0.85"/><circle cx="290" cy="500" r="5.7" fill="#1a1a1a" opacity="0.85"/><circle cx="360" cy="500" r="8.0" fill="#1a1a1a" opacity="0.85"/><circle cx="430" cy="500" r="10.4" fill="#1a1a1a" opacity="0.85"/><circle cx="500" cy="500" r="12.6" fill="#1a1a1a" opacity="0.85"/><circle cx="570" cy="500" r="14.7" fill="#1a1a1a" opacity="0.85"/><circle cx="640" cy="500" r="16.5" fill="#1a1a1a" opacity="0.85"/><circle cx="710" cy="500" r="17.9" fill="#1a1a1a" opacity="0.85"/><circle cx="780" cy="500" r="18.5" fill="#1a1a1a" opacity="0.85"/><circle cx="850" cy="500" r="18.3" fill="#1a1a1a" opacity="0.85"/><circle cx="920" cy="500" r="17.3" fill="#1a1a1a" opacity="0.85"/><circle cx="990" cy="500" r="15.8" fill="#1a1a1a" opacity="0.85"/><circle cx="1060" cy="500" r="13.8" fill="#1a1a1a" opacity="0.85"/><circle cx="1130" cy="500" r="11.7" fill="#1a1a1a" opacity="0.85"/><circle cx="80" cy="570" r="2.0" fill="#1a1a1a" opacity="0.85"/><circle cx="150" cy="570" r="2.0" fill="#1a1a1a" opacity="0.85"/><circle cx="220" cy="570" r="2.2" fill="#1a1a1a" opacity="0.85"/><circle cx="290" cy="570" r="4.6" fill="#1a1a1a" opacity="0.85"/><circle cx="360" cy="570" r="6.8" fill="#1a1a1a" opacity="0.85"/><circle cx="430" cy="570" r="9.0" fill="#1a1a1a" opacity="0.85"/><circle cx="500" cy="570" r="11.0" fill="#1a1a1a" opacity="0.85"/><circle cx="570" cy="570" r="12.8" fill="#1a1a1a" opacity="0.85"/><circle cx="640" cy="570" r="14.3" fill="#1a1a1a" opacity="0.85"/><circle cx="710" cy="570" r="15.4" fill="#1a1a1a" opacity="0.85"/><circle cx="780" cy="570" r="15.9" fill="#1a1a1a" opacity="0.85"/><circle cx="850" cy="570" r="15.8" fill="#1a1a1a" opacity="0.85"/><circle cx="920" cy="570" r="15.0" fill="#1a1a1a" opacity="0.85"/><circle cx="990" cy="570" r="13.7" fill="#1a1a1a" opacity="0.85"/><circle cx="1060" cy="570" r="12.1" fill="#1a1a1a" opacity="0.85"/><circle cx="1130" cy="570" r="10.2" fill="#1a1a1a" opacity="0.85"/><circle cx="80" cy="640" r="2.0" fill="#1a1a1a" opacity="0.85"/><circle cx="150" cy="640" r="2.0" fill="#1a1a1a" opacity="0.85"/><circle cx="220" cy="640" r="2.0" fill="#1a1a1a" opacity="0.85"/><circle cx="290" cy="640" r="3.2" fill="#1a1a1a" opacity="0.85"/><circle cx="360" cy="640" r="5.3" fill="#1a1a1a" opacity="0.85"/><circle cx="430" cy="640" r="7.3" fill="#1a1a1a" opacity="0.85"/><circle cx="500" cy="640" r="9.2" fill="#1a1a1a" opacity="0.85"/><circle cx="570" cy="640" r="10.8" fill="#1a1a1a" opacity="0.85"/><circle cx="640" cy="640" r="12.0" fill="#1a1a1a" opacity="0.85"/><circle cx="710" cy="640" r="12.9" fill="#1a1a1a" opacity="0.85"/><circle cx="780" cy="640" r="13.3" fill="#1a1a1a" opacity="0.85"/><circle cx="850" cy="640" r="13.2" fill="#1a1a1a" opacity="0.85"/><circle cx="920" cy="640" r="12.6" fill="#1a1a1a" opacity="0.85"/><circle cx="990" cy="640" r="11.5" fill="#1a1a1a" opacity="0.85"/><circle cx="1060" cy="640" r="10.1" fill="#1a1a1a" opacity="0.85"/><circle cx="1130" cy="640" r="8.4" fill="#1a1a1a" opacity="0.85"/><circle cx="80" cy="710" r="2.0" fill="#1a1a1a" opacity="0.85"/><circle cx="150" cy="710" r="2.0" fill="#1a1a1a" opacity="0.85"/><circle cx="220" cy="710" r="2.0" fill="#1a1a1a" opacity="0.85"/><circle cx="290" cy="710" r="2.0" fill="#1a1a1a" opacity="0.85"/><circle cx="360" cy="710" r="3.7" fill="#1a1a1a" opacity="0.85"/><circle cx="430" cy="710" r="5.5" fill="#1a1a1a" opacity="0.85"/><circle cx="500" cy="710" r="7.1" fill="#1a1a1a" opacity="0.85"/><circle cx="570" cy="710" r="8.5" fill="#1a1a1a" opacity="0.85"/><circle cx="640" cy="710" r="9.7" fill="#1a1a1a" opacity="0.85"/><circle cx="710" cy="710" r="10.4" fill="#1a1a1a" opacity="0.85"/><circle cx="780" cy="710" r="10.8" fill="#1a1a1a" opacity="0.85"/><circle cx="850" cy="710" r="10.7" fill="#1a1a1a" opacity="0.85"/><circle cx="920" cy="710" r="10.1" fill="#1a1a1a" opacity="0.85"/><circle cx="990" cy="710" r="9.2" fill="#1a1a1a" opacity="0.85"/><circle cx="1060" cy="710" r="8.0" fill="#1a1a1a" opacity="0.85"/><circle cx="1130" cy="710" r="6.5" fill="#1a1a1a" opacity="0.85"/><circle cx="80" cy="780" r="2.0" fill="#1a1a1a" opacity="0.85"/><circle cx="150" cy="780" r="2.0" fill="#1a1a1a" opacity="0.85"/><circle cx="220" cy="780" r="2.0" fill="#1a1a1a" opacity="0.85"/><circle cx="290" cy="780" r="2.0" fill="#1a1a1a" opacity="0.85"/><circle cx="360" cy="780" r="2.0" fill="#1a1a1a" opacity="0.85"/><circle cx="430" cy="780" r="3.5" fill="#1a1a1a" opacity="0.85"/><circle cx="500" cy="780" r="5.0" fill="#1a1a1a" opacity="0.85"/><circle cx="570" cy="780" r="6.2" fill="#1a1a1a" opacity="0.85"/><circle cx="640" cy="780" r="7.2" fill="#1a1a1a" opacity="0.85"/><circle cx="710" cy="780" r="7.9" fill="#1a1a1a" opacity="0.85"/><circle cx="780" cy="780" r="8.2" fill="#1a1a1a" opacity="0.85"/><circle cx="850" cy="780" r="8.1" fill="#1a1a1a" opacity="0.85"/><circle cx="920" cy="780" r="7.6" fill="#1a1a1a" opacity="0.85"/><circle cx="990" cy="780" r="6.8" fill="#1a1a1a" opacity="0.85"/><circle cx="1060" cy="780" r="5.7" fill="#1a1a1a" opacity="0.85"/><circle cx="1130" cy="780" r="4.4" fill="#1a1a1a" opacity="0.85"/>
  <rect width="1200" height="800" fill="#e3dccb" filter="url(#grain)" opacity="0.6"/>
</svg>