<svg xmlns="http://www.w3.org/2000/svg" viewBox="0 0 1200 800" width="1200" height="800" role="img">
  <defs>
  <filter id="grain">
    <feTurbulence type="fractalNoise" baseFrequency="0.9" numOctaves="2" stitchTiles="stitch"/>
    <feColorMatrix type="saturate" values="0"/>
    <feComponentTransfer><feFuncA type="linear" slope="0.05"/></feComponentTransfer>
    <feComposite operator="over" in2="SourceGraphic"/>
  </filter></defs>
  <rect width="1200" height="800" fill="#e6ddcc"/>
  <g stroke="#3a544a" fill="none" stroke-width="3"><path d="M-40 120 C 280 20, 520 260, 760 140 S 1180 60, 1260 180" opacity="0.25"/><path d="M-40 146 C 280 46, 520 286, 760 166 S 1180 86, 1260 206" opacity="0.37"/><path d="M-40 172 C 280 72, 520 312, 760 192 S 1180 112, 1260 232" opacity="0.49"/><path d="M-40 198 C 280 98, 520 338, 760 218 S 1180 138, 1260 258" opacity="0.61"/><path d="M-40 224 C 280 124, 520 364, 760 244 S 1180 164, 1260 284" opacity="0.25"/><path d="M-40 250 C 280 150, 520 390, 760 270 S 1180 190, 1260 310" opacity="0.37"/><path d="M-40 276 C 280 176, 520 416, 760 296 S 1180 216, 1260 336" opacity="0.49"/><path d="M-40 302 C 280 202, 520 442, 760 322 S 1180 242, 1260 362" opacity="0.61"/><path d="M-40 328 C 280 228, 520 468, 760 348 S 1180 268, 1260 388" opacity="0.25"/><path d="M-40 354 C 280 254, 520 494, 760 374 S 1180 294, 1260 414" opacity="0.37"/><path d="M-40 380 C 280 280, 520 520, 760 400 S 1180 320, 1260 440" opacity="0.49"/><path d="M-40 406 C 280 306, 520 546, 760 426 S 1180 346, 1260 466" opacity="0.61"/><path d="M-40 432 C 280 332, 520 572, 760 452 S 1180 372, 1260 492" opacity="0.25"/><path d="M-40 458 C 280 358, 520 598, 760 478 S 1180 398, 1260 518" opacity="0.37"/><path d="M-40 484 C 280 384, 520 624, 760 504 S 1180 424, 1260 544" opacity="0.49"/><path d="M-40 510 C 280 410, 520 650, 760 530 S 1180 450, 1260 570" opacity="0.61"/></g>
  <rect width="1200" height="800" fill="#e6ddcc" filter="url(#grain)" opacity="0.6"/>
</svg>