<svg xmlns="http://www.w3.org/2000/svg" viewBox="0 0 1200 800" width="1200" height="800" role="img">
  <defs>
  <filter id="grain">
    <feTurbulence type="fractalNoise" baseFrequency="0.9" numOctaves="2" stitchTiles="stitch"/>
    <feColorMatrix type="saturate" values="0"/>
    <feComponentTransfer><feFuncA type="linear" slope="0.05"/></feComponentTransfer>
    <feComposite operator="over" in2="SourceGraphic"/>
  </filter></defs>
  <rect width="1200" height="800" fill="#ede6d6"/>
  <g><polygon points="-240,0 -150,0 -650,800 -740,800" fill="#c8442a" opacity="0.85"/><polygon points="-120,0 -30,0 -530,800 -620,800" fill="#6a6258" opacity="0.85"/><polygon points="0,0 90,0 -410,800 -500,800" fill="#2a2824" opacity="0.85"/><polygon points="120,0 210,0 -290,800 -380,800" fill="#ede6d6" opacity="0.85"/><polygon points="240,0 330,0 -170,800 -260,800" fill="#c8442a" opacity="0.85"/><polygon points="360,0 450,0 -50,800 -140,800" fill="#6a6258" opacity="0.85"/><polygon points="480,0 570,0 70,800 -20,800" fill="#2a2824" opacity="0.85"/><polygon points="600,0 690,0 190,800 100,800" fill="#ede6d6" opacity="0.85"/><polygon points="720,0 810,0 310,800 220,800" fill="#c8442a" opacity="0.85"/><polygon points="840,0 930,0 430,800 340,800" fill="#6a6258" opacity="0.85"/><polygon points="960,0 1050,0 550,800 460,800" fill="#2a2824" opacity="0.85"/><polygon points="1080,0 1170,0 670,800 580,800" fill="#ede6d6" opacity="0.85"/><polygon points="1200,0 1290,0 790,800 700,800" fill="#c8442a" opacity="0.85"/><polygon points="1320,0 1410,0 910,800 820,800" fill="#6a6258" opacity="0.85"/><polygon points="1440,0 1530,0 1030,800 940,800" fill="#2a2824" opacity="0.85"/><polygon points="1560,0 1650,0 1150,800 1060,800" fill="#ede6d6" opacity="0.85"/><polygon points="1680,0 1770,0 1270,800 1180,800" fill="#c8442a" opacity="0.85"/><polygon points="1800,0 1890,0 1390,800 1300,800" fill="#6a6258" opacity="0.85"/></g>
  <rect width="1200" height="800" fill="#ede6d6" filter="url(#grain)" opacity="0.6"/>
</svg>